<svg width="20" height="20" viewBox="0 0 20 20" fill="none" xmlns="http://www.w3.org/2000/svg">
<path d="M9.85333 6C8.83137 6 7.85126 6.40598 7.12862 7.12862C6.40598 7.85126 6 8.83137 6 9.85333C6 10.8753 6.40598 11.8554 7.12862 12.5781C7.85126 13.3007 8.83137 13.7067 9.85333 13.7067C10.8753 13.7067 11.8554 13.3007 12.5781 12.5781C13.3007 11.8554 13.7067 10.8753 13.7067 9.85333C13.7067 8.83137 13.3007 7.85126 12.5781 7.12862C11.8554 6.40598 10.8753 6 9.85333 6ZM9.85333 12.3558C9.18941 12.3558 8.55268 12.0921 8.08321 11.6226C7.61374 11.1532 7.35 10.5164 7.35 9.8525C7.35 9.18857 7.61374 8.55184 8.08321 8.08238C8.55268 7.61291 9.18941 7.34917 9.85333 7.34917C10.5173 7.34917 11.154 7.61291 11.6235 8.08238C12.0929 8.55184 12.3567 9.18857 12.3567 9.8525C12.3567 10.5164 12.0929 11.1532 11.6235 11.6226C11.154 12.0921 10.5173 12.3558 9.85333 12.3558Z" fill="white"/>
<path d="M14.005 6.90421C14.5011 6.90421 14.9033 6.50201 14.9033 6.00588C14.9033 5.50974 14.5011 5.10754 14.005 5.10754C13.5089 5.10754 13.1067 5.50974 13.1067 6.00588C13.1067 6.50201 13.5089 6.90421 14.005 6.90421Z" fill="white"/>
<path d="M16.6092 4.58833C16.4163 4.09015 16.1214 3.63774 15.7436 3.26005C15.3658 2.88236 14.9133 2.58773 14.415 2.395C13.8319 2.17613 13.216 2.05778 12.5933 2.045C11.7908 2.01 11.5367 2 9.50167 2C7.46667 2 7.20583 2 6.41 2.045C5.78782 2.05713 5.1723 2.1755 4.59 2.395C4.09161 2.5875 3.63897 2.88206 3.26111 3.25977C2.88325 3.63749 2.58852 4.09002 2.39583 4.58833C2.17692 5.17134 2.05885 5.78736 2.04667 6.41C2.01083 7.21167 2 7.46583 2 9.50167C2 11.5367 2 11.7958 2.04667 12.5933C2.05917 13.2167 2.17667 13.8317 2.39583 14.4158C2.58906 14.914 2.88408 15.3663 3.26203 15.744C3.63998 16.1216 4.09255 16.4163 4.59083 16.6092C5.17203 16.8368 5.78781 16.9637 6.41167 16.9842C7.21417 17.0192 7.46833 17.03 9.50333 17.03C11.5383 17.03 11.7992 17.03 12.595 16.9842C13.2176 16.9715 13.8335 16.8534 14.4167 16.635C14.9148 16.4418 15.3672 16.1469 15.745 15.7691C16.1228 15.3914 16.4177 14.939 16.6108 14.4408C16.83 13.8575 16.9475 13.2425 16.96 12.6192C16.9958 11.8175 17.0067 11.5633 17.0067 9.5275C17.0067 7.49167 17.0067 7.23333 16.96 6.43583C16.9503 5.80439 16.8316 5.17937 16.6092 4.58833ZM15.5942 12.5317C15.5888 13.0119 15.5011 13.4877 15.335 13.9383C15.2099 14.2624 15.0183 14.5567 14.7726 14.8022C14.5269 15.0478 14.2325 15.2392 13.9083 15.3642C13.4627 15.5295 12.992 15.6172 12.5167 15.6233C11.725 15.66 11.5017 15.6692 9.47167 15.6692C7.44 15.6692 7.2325 15.6692 6.42583 15.6233C5.95077 15.6175 5.48027 15.5298 5.035 15.3642C4.70974 15.24 4.41417 15.0489 4.16741 14.8033C3.92065 14.5577 3.7282 14.263 3.6025 13.9383C3.43871 13.4925 3.35109 13.0224 3.34333 12.5475C3.3075 11.7558 3.29917 11.5325 3.29917 9.5025C3.29917 7.47167 3.29917 7.26417 3.34333 6.45667C3.34872 5.97669 3.43638 5.50118 3.6025 5.05083C3.85667 4.39333 4.3775 3.87583 5.035 3.62417C5.48049 3.45928 5.95085 3.37164 6.42583 3.365C7.21833 3.32917 7.44083 3.31917 9.47167 3.31917C11.5025 3.31917 11.7108 3.31917 12.5167 3.365C12.992 3.37072 13.4628 3.45839 13.9083 3.62417C14.2324 3.74939 14.5268 3.941 14.7725 4.18669C15.0182 4.43238 15.2098 4.72673 15.335 5.05083C15.4988 5.49662 15.5864 5.9668 15.5942 6.44167C15.63 7.23417 15.6392 7.45667 15.6392 9.4875C15.6392 11.5175 15.6392 11.7358 15.6033 12.5325H15.5942V12.5317Z" fill="white"/>
</svg>
