<svg width="177" height="41" viewBox="0 0 177 41" fill="none" xmlns="http://www.w3.org/2000/svg">
<rect x="0.554502" y="0.596743" width="175" height="39" transform="rotate(0.0492348 0.554502 0.596743)" stroke="#F67ACB"/>
<path fill-rule="evenodd" clip-rule="evenodd" d="M70.5645 15.3839C73.1982 18.0222 73.1946 22.2961 70.5563 24.9298C67.918 27.5636 63.6441 27.5599 61.0103 24.9216C58.3766 22.2833 58.3802 18.0095 61.0185 15.3757C63.6568 12.7419 67.9307 12.7456 70.5645 15.3839Z" fill="#F67ACB"/>
<path d="M90.24 24.0937L90.2418 22.0617L85.0738 22.0573L85.0816 12.8893L82.7936 12.8873L82.784 24.0873L90.24 24.0937Z" fill="#050110"/>
<path d="M90.7294 19.9662C90.7273 22.3982 92.6297 24.2558 95.1417 24.2579C97.6537 24.2601 99.5593 22.4057 99.5614 19.9737C99.5635 17.5417 97.6611 15.6841 95.1491 15.6819C92.6371 15.6798 90.7315 17.5342 90.7294 19.9662ZM92.9694 19.9681C92.9706 18.6561 93.9154 17.6649 95.1474 17.6659C96.3954 17.667 97.3226 18.6598 97.3214 19.9718C97.3203 21.2998 96.3914 22.291 95.1434 22.2899C93.9114 22.2889 92.9683 21.2961 92.9694 19.9681Z" fill="#050110"/>
<path d="M107.055 16.7962C106.415 16.1076 105.52 15.6909 104.432 15.6899C102.176 15.688 100.462 17.4945 100.46 19.8465C100.458 22.1985 102.169 24.008 104.425 24.0099C105.513 24.0109 106.409 23.5956 107.05 22.9082L107.049 23.1802C107.048 24.5402 106.039 25.4993 104.791 25.4982C103.911 25.4975 103.272 25.0009 102.888 24.2166L100.952 25.2389C101.654 26.5515 103.046 27.4647 104.79 27.4662C107.302 27.4684 109.207 25.614 109.209 23.182L109.216 15.854L107.056 15.8522L107.055 16.7962ZM104.874 22.0423C103.642 22.0412 102.699 21.0964 102.7 19.8484C102.701 18.6004 103.646 17.6733 104.878 17.6743C106.126 17.6754 107.053 18.6042 107.052 19.8522C107.051 21.1002 106.122 22.0434 104.874 22.0423Z" fill="#050110"/>
<path d="M110.456 19.9831C110.454 22.4151 112.357 24.2727 114.869 24.2749C117.381 24.2771 119.286 22.4227 119.288 19.9907C119.29 17.5587 117.388 15.7011 114.876 15.6989C112.364 15.6967 110.458 17.5511 110.456 19.9831ZM112.696 19.985C112.697 18.673 113.642 17.6818 114.874 17.6829C116.122 17.684 117.049 18.6768 117.048 19.9888C117.047 21.3168 116.118 22.308 114.87 22.3069C113.638 22.3058 112.695 21.313 112.696 19.985Z" fill="#050110"/>
</svg>
